<svg xmlns="http://www.w3.org/2000/svg" viewBox="0 0 512 512" role="img" aria-label="Carlo Barone portrait icon">
  <circle cx="256" cy="256" r="248" fill="#fff"/>
  <g fill="#000">
    <path d="M 235.59 33.07 L 222.52 50.22 L 202.92 56.34 L 202.11 46.95 L 169.03 71.86 L 140.45 123.71 L 153.93 122.49 L 180.47 75.94 L 169.85 99.62 L 187.00 91.46 L 178.02 118.41 L 135.96 158.01 L 146.58 151.89 L 128.61 181.28 L 129.84 160.87 L 124.53 211.90 L 155.97 176.38 L 156.78 193.53 L 173.93 193.12 L 184.14 228.64 L 200.06 194.35 L 251.10 199.25 L 258.86 229.05 L 288.66 238.04 L 312.75 233.54 L 332.35 204.56 L 344.60 242.12 L 367.87 244.57 L 358.48 300.10 L 338.07 271.52 L 349.09 257.22 L 325.00 270.29 L 342.15 293.97 L 318.88 297.24 L 339.29 307.04 L 343.78 293.15 L 353.17 307.04 L 343.78 336.84 L 332.76 314.39 L 329.49 327.86 L 318.47 326.23 L 331.53 333.58 L 322.55 353.58 L 294.79 343.78 L 291.52 354.81 L 269.07 324.19 L 247.83 338.88 L 250.69 318.88 L 231.91 296.83 L 220.07 308.26 L 216.40 269.07 L 194.76 247.43 L 193.53 229.46 L 186.59 235.99 L 181.28 224.15 L 185.37 278.46 L 194.35 275.19 L 193.94 313.16 L 182.10 318.06 L 254.78 393.19 L 296.01 402.99 L 229.05 398.49 L 232.73 461.78 L 300.50 429.52 L 331.53 439.32 L 335.21 477.70 L 411.56 422.18 L 343.78 395.64 L 370.73 349.91 L 368.69 244.57 L 386.65 239.67 L 400.94 203.74 L 373.18 188.63 L 393.19 152.29 L 398.49 164.54 L 404.62 149.03 L 424.22 147.39 L 405.44 142.49 L 427.89 134.74 L 400.94 137.19 L 407.48 122.49 L 394.82 127.80 L 376.04 91.87 L 366.65 102.89 L 324.59 59.20 L 281.31 56.34 L 289.48 50.63 Z"/>
    <path d="M 147.80 329.90 L 143.72 335.21 L 138.82 346.23 L 131.47 355.62 L 120.85 373.18 L 111.87 381.35 L 91.46 394.41 L 91.05 396.45 L 107.79 418.09 L 127.39 438.10 L 144.13 451.98 L 163.73 465.05 L 186.18 476.48 L 204.96 483.42 L 226.19 488.73 L 249.47 491.18 L 209.05 427.48 L 155.15 357.67 L 149.44 344.19 L 150.66 329.90 Z"/>
    <path d="M 138.00 215.99 L 135.55 222.11 L 135.96 227.83 L 134.74 230.28 L 135.55 235.99 L 134.74 238.85 L 135.96 242.12 L 136.37 248.24 L 137.19 249.06 L 136.78 249.88 L 135.55 249.47 L 135.55 252.73 L 137.19 255.59 L 137.19 259.27 L 139.23 261.72 L 138.82 264.17 L 138.00 264.57 L 137.59 263.35 L 136.78 263.35 L 135.96 264.98 L 136.37 268.25 L 137.59 268.25 L 138.00 264.98 L 139.64 266.21 L 140.45 264.17 L 141.68 263.76 L 142.09 267.84 L 143.72 267.43 L 145.35 269.47 L 146.17 271.92 L 144.94 275.60 L 143.72 276.01 L 141.27 273.96 L 140.45 273.96 L 140.04 276.82 L 141.27 279.68 L 143.31 281.72 L 144.13 287.85 L 149.44 298.05 L 154.74 303.77 L 157.60 305.81 L 157.60 300.10 L 158.42 298.46 L 157.60 287.44 L 157.60 270.29 L 158.42 269.07 L 158.83 262.53 L 150.25 251.92 L 145.35 243.34 L 143.31 237.22 L 142.49 231.50 L 140.45 228.24 Z"/>
    <path d="M 321.74 273.56 L 319.29 273.56 L 318.47 272.33 L 314.79 271.92 L 313.98 272.74 L 312.34 271.11 L 310.71 271.92 L 309.08 270.70 L 307.44 272.74 L 305.40 271.11 L 304.59 273.56 L 302.55 271.52 L 301.73 274.78 L 300.91 275.19 L 300.10 274.37 L 300.10 277.23 L 299.28 278.05 L 298.46 277.64 L 298.46 275.60 L 297.65 274.37 L 296.42 276.01 L 295.60 276.01 L 293.97 273.96 L 293.15 273.96 L 289.89 277.64 L 288.66 276.82 L 287.03 277.64 L 286.21 276.01 L 281.72 280.91 L 280.91 280.50 L 281.72 278.05 L 280.91 278.05 L 278.46 282.13 L 276.82 282.54 L 276.82 283.76 L 275.19 284.17 L 274.37 286.62 L 272.74 287.44 L 272.33 289.07 L 270.70 290.70 L 271.92 292.34 L 270.70 293.56 L 269.47 293.56 L 269.47 294.38 L 272.74 293.97 L 273.15 295.20 L 274.78 296.01 L 275.19 297.65 L 278.46 294.38 L 279.68 295.60 L 280.91 295.60 L 281.31 293.56 L 283.36 292.75 L 286.21 293.56 L 291.11 296.83 L 294.38 297.24 L 296.42 298.46 L 298.46 297.65 L 300.10 298.87 L 300.50 298.46 L 298.46 296.83 L 298.05 295.60 L 299.28 294.38 L 303.77 294.38 L 304.18 295.60 L 306.22 295.60 L 308.26 296.83 L 310.71 295.60 L 316.02 296.83 L 311.53 294.79 L 309.89 292.75 L 308.26 292.75 L 306.63 291.52 L 304.59 293.56 L 297.24 293.56 L 293.56 291.93 L 286.62 292.34 L 283.76 291.52 L 283.36 290.70 L 286.21 287.85 L 287.03 288.26 L 286.62 289.89 L 287.44 290.30 L 292.34 286.21 L 293.15 284.58 L 295.20 285.40 L 296.83 283.76 L 298.46 284.17 L 298.87 281.72 L 300.10 282.95 L 299.69 283.76 L 300.91 282.95 L 303.77 286.21 L 304.59 284.58 L 306.63 284.99 L 307.85 283.76 L 309.89 284.99 L 310.71 284.58 L 312.75 285.40 L 312.75 284.17 L 315.20 281.72 L 316.43 281.72 L 317.65 280.50 L 318.88 280.91 L 320.51 279.27 L 320.51 276.82 Z"/>
    <path d="M 143.72 98.40 L 142.90 99.22 L 142.90 99.62 L 142.09 100.44 L 142.09 100.85 L 141.68 101.26 L 141.68 101.67 L 141.27 102.07 L 141.27 102.48 L 140.04 103.71 L 140.04 104.11 L 139.23 104.93 L 139.23 105.34 L 138.41 106.16 L 138.41 106.56 L 138.00 106.97 L 138.00 107.38 L 137.19 108.20 L 137.19 109.01 L 136.78 109.42 L 136.78 109.83 L 136.37 110.24 L 136.37 111.06 L 135.96 111.46 L 135.96 112.28 L 135.55 112.69 L 135.55 115.96 L 135.15 116.36 L 135.15 116.77 L 134.74 117.18 L 134.74 118.81 L 135.15 118.81 L 136.37 117.59 L 136.37 116.77 L 136.78 116.36 L 136.78 115.55 L 137.59 114.73 L 137.59 113.10 L 138.82 111.87 L 138.82 111.06 L 139.23 110.65 L 139.23 110.24 L 139.64 109.83 L 139.64 109.42 L 140.04 109.01 L 140.04 108.61 L 140.45 108.20 L 140.45 107.79 L 140.86 107.38 L 140.86 106.56 L 141.27 106.16 L 141.27 105.75 L 142.09 104.93 L 142.09 104.52 L 142.49 104.11 L 142.49 103.71 L 142.90 103.30 L 142.90 100.85 L 143.31 100.44 L 143.31 100.03 L 143.72 99.62 Z"/>
    <path d="M 223.34 293.15 L 222.93 293.56 L 223.34 293.97 L 224.15 293.97 L 225.38 295.20 L 225.38 296.83 L 224.97 297.24 L 223.74 297.24 L 222.93 296.42 L 222.52 296.42 L 221.30 295.20 L 220.89 295.60 L 220.89 298.46 L 222.52 298.46 L 223.34 299.28 L 223.34 299.69 L 223.74 300.10 L 224.15 300.10 L 224.97 300.91 L 224.97 301.32 L 225.38 301.73 L 225.38 302.14 L 224.97 302.55 L 224.15 302.55 L 224.15 302.95 L 224.56 303.36 L 224.56 303.77 L 225.38 303.77 L 225.79 303.36 L 226.19 303.36 L 226.19 300.50 L 226.60 300.10 L 226.60 299.69 L 227.01 299.28 L 228.24 299.28 L 228.64 298.87 L 228.64 298.46 L 228.24 298.05 L 228.24 297.24 L 227.83 296.83 L 227.01 296.83 L 226.19 296.01 L 226.19 294.38 L 225.38 293.56 L 224.97 293.56 L 224.56 293.97 L 224.15 293.97 L 223.74 293.56 L 223.74 293.15 Z"/>
    <path d="M 168.63 242.12 L 170.26 243.75 L 170.67 243.75 L 171.48 244.57 L 172.30 244.57 L 173.12 245.38 L 173.93 245.38 L 174.34 245.79 L 175.16 245.79 L 175.57 245.38 L 175.57 244.98 L 175.97 244.57 L 175.97 244.16 L 175.57 243.75 L 175.57 242.53 L 175.16 242.12 L 175.16 240.89 L 174.75 240.48 L 174.75 240.08 L 174.34 239.67 L 174.34 239.26 L 173.93 238.85 L 173.12 238.85 L 173.12 241.30 L 172.30 242.12 L 171.89 242.12 L 171.48 242.53 L 171.07 242.53 L 170.67 242.12 L 169.85 242.12 L 169.44 241.71 L 169.03 241.71 Z"/>
    <path d="M 313.98 260.49 L 314.39 260.49 L 314.79 260.90 L 316.43 260.90 L 316.84 261.31 L 317.65 261.31 L 318.06 261.72 L 320.10 261.72 L 320.51 261.31 L 322.96 261.31 L 323.78 262.12 L 324.19 262.12 L 324.59 262.53 L 325.00 262.53 L 326.23 263.76 L 326.23 265.80 L 327.04 266.62 L 328.27 266.62 L 328.27 265.39 L 327.86 264.98 L 327.86 264.57 L 326.63 263.35 L 326.23 263.35 L 325.82 262.94 L 325.82 262.53 L 325.41 262.12 L 325.00 262.12 L 324.19 261.31 L 322.96 261.31 L 322.55 260.90 L 322.14 260.90 L 321.74 260.49 L 321.33 260.49 L 320.92 260.08 L 314.39 260.08 Z"/>
    <path d="M 315.61 319.29 L 315.20 319.29 L 315.20 319.69 L 314.79 320.10 L 314.79 320.51 L 314.39 320.92 L 313.98 320.92 L 313.16 321.74 L 313.16 322.55 L 311.94 323.78 L 311.94 325.00 L 312.34 325.41 L 312.34 325.00 L 312.75 324.59 L 313.16 324.59 L 313.57 325.00 L 313.57 325.41 L 313.98 325.41 L 314.39 325.00 L 314.39 324.59 L 315.20 323.78 L 315.20 323.37 L 315.61 322.96 L 315.61 321.74 L 315.20 321.33 L 315.20 320.10 L 315.61 319.69 Z"/>
    <path d="M 257.22 325.82 L 256.82 325.82 L 256.41 326.23 L 255.59 326.23 L 254.37 327.45 L 253.96 327.45 L 253.96 328.27 L 253.14 329.08 L 253.14 329.49 L 252.33 330.31 L 251.51 330.31 L 251.51 331.13 L 250.69 331.94 L 250.69 332.35 L 251.10 332.35 L 251.92 331.53 L 253.14 331.53 L 254.37 330.31 L 255.18 330.31 L 255.59 329.90 L 255.59 329.08 L 255.18 328.68 L 255.18 327.86 Z"/>
    <path d="M 289.48 44.91 L 289.07 44.50 L 288.66 44.50 L 288.26 44.91 L 287.44 44.91 L 287.03 44.50 L 286.21 44.50 L 285.81 44.91 L 283.36 44.91 L 282.95 45.32 L 282.95 45.73 L 283.76 46.55 L 284.17 46.55 L 284.58 46.95 L 285.40 46.95 L 285.81 46.55 L 286.21 46.55 L 286.62 46.14 L 287.85 46.14 L 288.26 45.73 L 288.66 45.73 Z"/>
    <path d="M 178.83 220.07 L 178.02 220.89 L 178.02 221.30 L 177.20 222.11 L 177.20 224.15 L 176.79 224.56 L 176.79 225.79 L 177.20 225.79 L 177.20 225.38 L 179.65 222.93 L 179.65 222.52 L 180.06 222.11 L 179.65 221.70 L 179.65 221.30 L 179.24 220.89 L 179.24 220.48 Z"/>
    <path d="M 129.02 143.72 L 128.61 144.13 L 128.61 144.54 L 128.20 144.94 L 128.20 145.35 L 127.80 145.76 L 127.80 146.99 L 127.39 147.39 L 127.39 147.80 L 126.98 148.21 L 126.98 149.03 L 126.57 149.44 L 126.57 149.84 L 126.16 150.25 L 126.16 151.07 L 125.75 151.48 L 125.75 152.29 L 126.16 152.29 L 126.16 151.89 L 126.98 151.07 L 126.98 150.66 L 127.39 150.25 L 127.39 149.44 L 127.80 149.03 L 127.80 148.21 L 128.20 147.80 L 128.20 147.39 L 128.61 146.99 L 128.61 146.58 L 129.02 146.17 L 129.02 145.76 L 129.43 145.35 L 129.43 144.13 Z"/>
    <path d="M 131.47 129.43 L 130.65 129.43 L 129.43 130.65 L 129.43 131.47 L 128.20 132.70 L 128.20 134.33 L 128.61 134.33 L 130.65 132.29 L 130.65 131.88 L 131.06 131.47 L 131.06 131.06 L 131.47 130.65 Z"/>
  </g>
</svg>
